<?xml version="1.0" encoding="UTF-8"?>
<svg width="930px" height="256px" viewBox="0 0 930 256" version="1.1" xmlns="http://www.w3.org/2000/svg" xmlns:xlink="http://www.w3.org/1999/xlink">
    <title>编组 2</title>
    <defs>
        <polygon id="path-1" points="681.351759 214 688.015075 214 701.170854 167.582712 701.341709 167.582712 714.155779 214 720.733668 214 735 156 728.849246 156 717.572864 203.281669 717.487437 203.281669 704.160804 156 698.693467 156 685.281407 203.281669 685.025126 203.281669 673.748744 156 667 156"></polygon>
        <path d="M778.413265,215 C794.372449,215 804,204.004329 804,185.735931 L804,184.350649 C804,165.30303 794.372449,155 778.673469,155 C762.627551,155 753,165.995671 753,184.264069 L753,185.649351 C753,204.69697 762.627551,215 778.413265,215 Z M778.586735,209.372294 C765.576531,209.372294 760.372449,199.675325 760.372449,185.649351 L760.372449,182.965368 C760.372449,169.978355 766.357143,160.627706 778.326531,160.627706 C791.510204,160.714286 796.627551,170.238095 796.627551,184.350649 L796.627551,187.034632 C796.627551,199.935065 790.642857,209.372294 778.586735,209.372294 Z" id="path-2"></path>
        <path d="M827,214 L833.810345,214 L833.810345,189.105812 L844.844828,189.105812 L859.241379,214 L867,214 L851.655172,187.895678 L851.655172,187.463487 C858.810345,185.216095 862.948276,180.548435 862.948276,172.250373 C862.948276,161.791356 856.568966,156 843.810345,156 L827,156 L827,214 Z M833.810345,183.746647 L833.810345,161.791356 L843.293103,161.791356 C852.172414,161.791356 855.706897,165.162444 855.706897,172.336811 C855.706897,179.85693 852.431034,183.746647 843.37931,183.746647 L833.810345,183.746647 Z" id="path-3"></path>
        <path d="M921.085106,214 L929,214 L904.829787,183.746647 L927.978723,156 L920.744681,156 L896.914894,184.438152 L921.085106,214 Z M889,214 L895.723404,214 L895.723404,156 L889,156 L889,214 Z" id="path-4"></path>
        <polygon id="path-5" points="-0.31 69.54 7.77080808 69.54 7.77080808 37.8201788 41.710202 37.8201788 41.710202 69.54 49.69 69.54 49.69 1.54 41.710202 1.54 41.710202 31.030313 7.77080808 31.030313 7.77080808 1.54 -0.31 1.54"></polygon>
        <path d="M74.69,69.54 L82.4505634,69.54 L89.496338,49.6771088 L116.964648,49.6771088 L124.214648,69.54 L132.69,69.54 L107.672394,1.54 L99.8097183,1.54 L74.69,69.54 Z M103.077324,12.2821759 L103.281549,12.2821759 L114.411831,42.8872429 L91.8449296,42.8872429 L103.077324,12.2821759 Z" id="path-6"></path>
        <path d="M181.073648,70.54 C189.023333,70.54 195.161698,68.7218182 199.69,66.0955556 L199.69,59.3278788 C195.463585,61.4490909 190.432138,63.7723232 182.079937,63.7723232 C166.583082,63.7723232 160.14283,53.6713131 160.14283,36.2975758 L160.14283,32.9642424 C160.14283,14.9844444 169.199434,7.30767677 181.979308,7.30767677 C188.620818,7.30767677 193.652264,8.82282828 198.985597,10.9440404 L198.985597,4.27737374 C194.859811,2.05515152 189.627107,0.54 182.381824,0.54 C165.174277,0.54 151.69,10.0349495 151.69,34.2773737 L151.69,36.2975758 C151.69,59.2268687 162.859811,70.54 181.073648,70.54 Z" id="path-7"></path>
        <path d="M265.192128,69.54 L274.69,69.54 L245.685745,34.0705514 L273.464468,1.54 L264.783617,1.54 L236.187872,34.8812817 L265.192128,69.54 Z M226.69,69.54 L234.758085,69.54 L234.758085,1.54 L226.69,1.54 L226.69,69.54 Z" id="path-8"></path>
        <polygon id="path-9" points="300.69 69.54 308.69 69.54 308.69 1.54 300.69 1.54"></polygon>
        <polygon id="path-10" points="339.69 69.54 347.210325 69.54 347.210325 12.4848584 347.515203 12.4848584 381.356667 69.54 389.69 69.54 389.69 1.54 382.372927 1.54 382.372927 55.9602683 382.068049 55.9602683 349.242846 1.54 339.69 1.54"></polygon>
        <polygon id="path-11" points="436.694098 69.54 444.685902 69.54 444.685902 8.32986587 465.69 8.32986587 465.69 1.54 415.69 1.54 415.69 8.32986587 436.694098 8.32986587"></polygon>
        <path d="M516.587959,70.54 C535.363469,70.54 546.69,57.7117172 546.69,36.3985859 L546.69,34.7824242 C546.69,12.560202 535.363469,0.54 516.894082,0.54 C498.016531,0.54 486.69,13.3682828 486.69,34.6814141 L486.69,36.2975758 C486.69,58.519798 498.016531,70.54 516.587959,70.54 Z M516.792041,63.9743434 C501.485918,63.9743434 495.363469,52.6612121 495.363469,36.2975758 L495.363469,33.1662626 C495.363469,18.0147475 502.404286,7.10565657 516.485918,7.10565657 C531.996122,7.20666667 538.016531,18.3177778 538.016531,34.7824242 L538.016531,37.9137374 C538.016531,52.9642424 530.975714,63.9743434 516.792041,63.9743434 Z" id="path-12"></path>
        <path d="M588.973654,70.54 C604.824615,70.54 611.69,62.6725648 611.69,50.8714121 C611.69,39.4737176 605.329423,35.2374063 595.334231,31.8080115 L588.670769,29.6898559 C580.997692,27.0673775 578.574615,24.24317 578.574615,17.7878386 C578.574615,11.3325072 583.218846,7.29792507 591.497692,7.29792507 C598.968846,7.29792507 604.319808,9.21435159 608.257308,11.0299135 L608.257308,4.27198847 C604.521731,2.45642651 599.776538,0.54 591.800577,0.54 C577.665962,0.54 570.699615,8.00397695 570.699615,18.4938905 C570.699615,28.7820749 576.050577,33.6235735 585.540962,36.7503746 L592.103462,39.0702594 C600.281346,41.6927378 603.613077,44.5169452 603.613077,51.4765994 C603.613077,58.8397118 599.069808,63.6812104 588.670769,63.6812104 C581.5025,63.6812104 574.839038,61.8656484 569.69,59.24317 L569.69,66.0010951 C574.233269,68.5227089 580.694808,70.54 588.973654,70.54 Z" id="path-13"></path>
        <polygon id="path-14" points="638.69 69.54 646.770808 69.54 646.770808 37.8201788 680.710202 37.8201788 680.710202 69.54 688.69 69.54 688.69 1.54 680.710202 1.54 680.710202 31.030313 646.770808 31.030313 646.770808 1.54 638.69 1.54"></polygon>
    </defs>
    <g id="页面-1" stroke="none" stroke-width="1" fill="none" fill-rule="evenodd">
        <g id="编组-2" fill-rule="nonzero">
            <g id="2962084" transform="translate(-0.000000, 0.000000)" fill="#000000">
                <g id="编组" transform="translate(104.000000, 128.000000) scale(-1, 1) rotate(-180.000000) translate(-104.000000, -128.000000) translate(0.000000, 0.000000)">
                    <path d="M150.139873,255.719896 C138.288301,254.342069 121.515562,243.817816 113.187431,232.560677 C108.38274,226.111274 105.558164,219.955026 103.112139,210.691339 L101.889127,206.059495 L101.947366,201.134497 C102.005604,198.437474 102.151201,195.916344 102.296798,195.505927 C102.675349,194.538517 103.403333,194.391939 108.528336,194.362624 C112.77976,194.333308 113.041834,194.362624 116.681752,195.447296 C126.407611,198.290896 133.541849,202.570955 138.608614,208.639256 C139.831626,210.134345 141.666145,212.127797 142.627083,213.124523 C145.83021,216.290593 149.936037,223.326305 152.207346,229.423922 C154.478654,235.550855 155.497831,241.238055 155.789024,249.329124 L155.96374,254.517962 L155.206638,255.280164 C154.362177,256.130312 153.896267,256.159628 150.139873,255.719896 Z" id="路径"></path>
                    <path d="M147.431774,195.124826 C141.666145,194.831671 126.145537,190.492982 114.99283,186.095662 C108.237143,183.427955 108.237143,183.427955 106.897653,183.193431 C104.568106,182.81233 98.8607158,184.483312 89.0474984,188.470215 C83.8351366,190.551613 78.4771782,192.134648 70.5567178,193.952207 C67.2371131,194.685094 61.733558,194.77304 59.3457721,194.098785 C58.3848339,193.834946 55.3564226,193.219321 52.6192047,192.750273 C46.7370982,191.694916 43.4174935,190.668875 38.9913539,188.470215 C25.6255771,181.903551 16.5112238,172.46397 9.28962764,157.688975 C6.0865003,151.180941 3.72783381,144.819485 1.98067344,138.047612 C-0.610947768,127.992407 -0.669186447,108.70283 1.86419608,97.0059587 C2.15538948,95.5695008 2.41746353,93.8692038 2.41746353,93.194948 C2.41746353,91.7878056 2.67953759,90.7324488 5.1255621,81.0290293 C7.39687058,72.0584965 7.16391586,72.7913831 11.5026974,61.8273986 C17.5886394,46.4367785 19.5105158,43.0361844 31.9444737,25.7693744 C37.0403581,18.7043469 39.6319793,15.4796456 43.3883741,11.6393194 C47.319485,7.59378502 50.493493,5.24854767 54.9778712,3.0205722 C60.0446363,0.528757521 62.2577061,-0.0282363476 66.9168004,0 C72.886265,0 77.690956,1.23232872 86.8344286,5.10197034 C92.6000578,7.53515408 92.9786092,7.65241595 103.461571,9.82176049 C106.60646,10.4960162 109.518394,10.4373853 113.944534,9.70449863 C115.458739,9.46997489 117.730048,9.11818929 118.95306,8.94229649 C121.428204,8.59051089 123.932467,7.76967782 130.39696,5.16060127 C138.200943,1.99453086 143.704499,0.587388455 149.470128,0.235602853 C157.856497,-0.292075549 165.951674,3.4603042 174.600118,11.8152122 C183.423278,20.404644 191.664051,32.1601462 199.992182,48.0198137 C202.234371,52.2998719 205.81605,61.0651964 206.427556,63.7035884 C206.68963,64.7589453 207.12642,66.0781413 207.446733,66.6058197 C207.737926,67.1334981 208,67.8663847 208,68.1888549 C208,69.2442117 205.874288,70.9151933 202.117893,72.8206986 C195.041894,76.485132 188.082372,82.7586419 183.394158,89.8236694 C180.045434,94.8952451 176.667591,102.487951 175.82313,106.973217 C174.396282,114.360715 173.988612,122.451784 174.803953,128.080354 C175.007788,129.546127 175.735772,132.624251 176.434636,134.969488 C179.433928,145.141955 181.501401,149.216805 186.189615,154.259065 C187.616462,155.754154 188.781236,157.131981 188.781236,157.249243 C188.781236,157.747606 195.915474,163.757277 197.662634,164.724687 C198.623573,165.281681 199.846585,166.131829 200.370733,166.659508 C201.972297,168.242543 201.739342,168.858168 197.720873,173.607273 C192.333795,179.96873 185.548989,185.186883 177.57029,189.08584 C172.590883,191.519024 169.154801,192.720958 164.35011,193.717684 C159.428942,194.77304 152.090868,195.388665 147.431774,195.124826 Z" id="路径"></path>
                </g>
            </g>
            <g id="HW" transform="translate(8.275000, 121.697038)" fill="#FFFFFF">
                <path d="M26.435,28.857962 C32.4416667,28.857962 37.995,28.9146286 43.095,29.027962 C45.7583333,18.2612953 48.365,10.7812953 50.915,6.58796196 C52.615,4.15129529 54.315,2.39462862 56.015,1.31796196 C56.695,0.864628623 57.3891667,0.637961957 58.0975,0.637961957 C58.8058333,0.637961957 59.16,1.74296196 59.16,3.95296196 C59.16,6.16296196 58.9758333,8.48629529 58.6075,10.922962 C58.2391667,13.3596286 57.7716667,16.1646286 57.205,19.337962 C55.335,29.7646286 53.9325,38.0946286 52.9975,44.327962 C52.0625,50.5612953 51.595,56.567962 51.595,62.347962 C51.595,63.9346286 50.4616667,64.727962 48.195,64.727962 C44.625,64.727962 42.1883333,64.0337953 40.885,62.645462 C39.5816667,61.2571286 38.93,58.735462 38.93,55.080462 C38.93,51.425462 39.6666667,45.6596286 41.14,37.782962 C34.9066667,37.4996286 30.9683333,37.357962 29.325,37.357962 L25.84,37.357962 C25.2166667,37.357962 24.5933333,37.3862953 23.97,37.442962 C21.42,47.1896286 20.145,54.8962953 20.145,60.562962 C20.145,63.9062953 16.8866667,65.577962 10.37,65.577962 C8.95333333,65.577962 8.1175,64.855462 7.8625,63.410462 C7.6075,61.965462 7.48,59.6137953 7.48,56.355462 C7.48,53.0971286 8.5,47.2462953 10.54,38.802962 C7.08333333,39.312962 4.56166667,39.567962 2.975,39.567962 C2.23833333,39.567962 1.87,39.2846286 1.87,38.717962 C1.87,37.4712953 2.79083333,36.0546286 4.6325,34.467962 C6.47416667,32.8812953 9.18,31.6062953 12.75,30.642962 C14.8466667,23.3896286 16.9433333,17.4396286 19.04,12.792962 C12.92,12.9062953 8.415,14.0962953 5.525,16.362962 C4.61833333,17.042962 3.88166667,17.6521286 3.315,18.190462 C2.74833333,18.7287953 2.2525,18.997962 1.8275,18.997962 C1.4025,18.997962 0.991666667,18.657962 0.595,17.977962 C0.198333333,17.297962 1.42108547e-14,16.3912953 1.42108547e-14,15.257962 C1.42108547e-14,11.1212953 3.485,7.97629529 10.455,5.82296196 C16.0083333,4.12296196 22.4683333,3.24462862 29.835,3.18796196 L30.005,3.18796196 C30.4016667,3.18796196 30.9541667,3.41462862 31.6625,3.86796196 C32.3708333,4.32129529 32.725,5.05796196 32.725,6.07796196 C32.725,7.09796196 32.5408333,8.24546196 32.1725,9.52046196 C31.8041667,10.795462 31.3083333,11.7446286 30.685,12.367962 C30.345,15.0312953 28.9283333,20.527962 26.435,28.857962 Z" id="路径"></path>
                <path d="M81.9616667,11.432962 C81.3383333,11.942962 80.6866667,12.4246286 80.0066667,12.877962 C79.3266667,13.3312953 78.5475,13.557962 77.6691667,13.557962 C76.7908333,13.557962 76.3516667,12.792962 76.3516667,11.262962 C76.3516667,8.14629529 77.7966667,5.59629529 80.6866667,3.61296196 C83.4633333,1.57296196 86.8066667,0.552961957 90.7166667,0.552961957 C94.6266667,0.552961957 97.4883333,1.94129529 99.3016667,4.71796196 C100.775,6.92796196 101.511667,9.93129529 101.511667,13.727962 C101.511667,15.3712953 101.2,17.4962953 100.576667,20.102962 C97.3466667,33.5896286 95.7033333,42.9396286 95.6466667,48.152962 C95.7033333,50.6462953 96.7516667,52.3462953 98.7916667,53.252962 C99.585,53.592962 100.52,53.762962 101.596667,53.762962 C106.64,53.762962 111.4,50.787962 115.876667,44.837962 C113.61,36.9046286 112.476667,27.8946286 112.476667,17.807962 C112.476667,14.067962 113.369167,11.0221286 115.154167,8.67046196 C116.939167,6.31879529 119.843333,5.14296196 123.866667,5.14296196 C126.87,5.14296196 129.150833,5.99296196 130.709167,7.69296196 C132.2675,9.39296196 133.046667,11.6312953 133.046667,14.407962 C133.046667,20.1312953 131.545,27.1862953 128.541667,35.572962 C127.521667,38.4062953 126.331667,41.2112953 124.971667,43.987962 C127.408333,50.5612953 130.638333,53.847962 134.661667,53.847962 C139.195,53.847962 143.161667,50.787962 146.561667,44.667962 C149.055,40.1912953 151.095,34.0996286 152.681667,26.392962 C148.545,25.8262953 145.2725,24.0696286 142.864167,21.122962 C140.455833,18.1762953 139.251667,15.0312953 139.251667,11.687962 C139.251667,8.34462862 140.3,5.56796196 142.396667,3.35796196 C144.493333,1.14796196 147.355,0.0287952899 150.981667,0 C154.608333,-0.0278713768 157.328333,1.24712862 159.141667,3.82546196 C160.955,6.40379529 161.861667,9.90296196 161.861667,14.322962 L161.861667,16.022962 C161.861667,16.6462953 161.833333,17.3262953 161.776667,18.062962 C162.74,17.6096286 163.561667,17.1421286 164.241667,16.660462 C164.921667,16.1787953 165.601667,15.937962 166.281667,15.937962 C167.415,15.937962 167.981667,16.4196286 167.981667,17.382962 C167.981667,19.252962 167.3725,20.8962953 166.154167,22.312962 C164.935833,23.7296286 163.306667,24.8062953 161.266667,25.542962 C160.53,32.172962 159.538333,37.3862953 158.291667,41.182962 C155.968333,48.492962 152.908333,54.0462953 149.111667,57.842962 C144.578333,62.262962 138.996667,64.5012953 132.366667,64.557962 C126.87,64.557962 122.393333,60.902962 118.936667,53.592962 C113.156667,60.902962 106.583333,64.557962 99.2166667,64.557962 C94.1733333,64.557962 90.1641667,63.2971286 87.1891667,60.775462 C84.2141667,58.2537953 82.7266667,54.272962 82.7266667,48.832962 C82.7266667,47.5296286 83.4491667,44.0871286 84.8941667,38.505462 C86.3391667,32.9237953 87.4866667,28.3337953 88.3366667,24.735462 C89.1866667,21.1371286 89.6116667,18.2896286 89.6116667,16.192962 C89.6116667,11.602962 88.45,9.30796196 86.1266667,9.30796196 C85.3333333,9.30796196 84.6108333,9.53462862 83.9591667,9.98796196 C83.3075,10.4412953 82.6416667,10.922962 81.9616667,11.432962 Z M123.186667,12.282962 C121.713333,12.282962 120.976667,14.577962 120.976667,19.167962 C120.976667,23.757962 121.373333,28.3762953 122.166667,33.022962 C124.32,27.412962 125.396667,21.972962 125.396667,16.702962 C125.396667,15.5696286 125.2125,14.5496286 124.844167,13.642962 C124.475833,12.7362953 123.923333,12.282962 123.186667,12.282962 Z M151.916667,7.43796196 C150.726667,7.43796196 150.131667,8.37296196 150.131667,10.242962 C150.131667,13.642962 151.463333,16.107962 154.126667,17.637962 C154.353333,15.4846286 154.466667,14.0396286 154.466667,13.302962 C154.466667,11.7162953 154.268333,10.4412953 153.871667,9.47796196 C153.418333,8.11796196 152.766667,7.43796196 151.916667,7.43796196 Z" id="形状"></path>
            </g>
            <g id="路径">
                <use fill="#FFFFFF" xlink:href="#path-1"></use>
                <use fill="#609DFF" xlink:href="#path-1"></use>
            </g>
            <g id="形状">
                <use fill="#FFFFFF" xlink:href="#path-2"></use>
                <use fill="#609DFF" xlink:href="#path-2"></use>
            </g>
            <g id="形状">
                <use fill="#FFFFFF" xlink:href="#path-3"></use>
                <use fill="#609DFF" xlink:href="#path-3"></use>
            </g>
            <g id="形状">
                <use fill="#FFFFFF" xlink:href="#path-4"></use>
                <use fill="#609DFF" xlink:href="#path-4"></use>
            </g>
            <g id="HACKINTOSH" transform="translate(240.310000, 68.460000)">
                <g id="路径">
                    <use fill="#FFFFFF" xlink:href="#path-5"></use>
                    <use fill="#333333" xlink:href="#path-5"></use>
                </g>
                <g id="形状">
                    <use fill="#FFFFFF" xlink:href="#path-6"></use>
                    <use fill="#333333" xlink:href="#path-6"></use>
                </g>
                <g id="路径">
                    <use fill="#FFFFFF" xlink:href="#path-7"></use>
                    <use fill="#333333" xlink:href="#path-7"></use>
                </g>
                <g id="形状">
                    <use fill="#FFFFFF" xlink:href="#path-8"></use>
                    <use fill="#333333" xlink:href="#path-8"></use>
                </g>
                <g id="路径">
                    <use fill="#FFFFFF" xlink:href="#path-9"></use>
                    <use fill="#333333" xlink:href="#path-9"></use>
                </g>
                <g id="路径">
                    <use fill="#FFFFFF" xlink:href="#path-10"></use>
                    <use fill="#333333" xlink:href="#path-10"></use>
                </g>
                <g id="路径">
                    <use fill="#FFFFFF" xlink:href="#path-11"></use>
                    <use fill="#333333" xlink:href="#path-11"></use>
                </g>
                <g id="形状">
                    <use fill="#FFFFFF" xlink:href="#path-12"></use>
                    <use fill="#333333" xlink:href="#path-12"></use>
                </g>
                <g id="路径">
                    <use fill="#FFFFFF" xlink:href="#path-13"></use>
                    <use fill="#333333" xlink:href="#path-13"></use>
                </g>
                <g id="路径">
                    <use fill="#FFFFFF" xlink:href="#path-14"></use>
                    <use fill="#333333" xlink:href="#path-14"></use>
                </g>
            </g>
        </g>
    </g>
</svg>